<svg viewBox="0 0 960 272" xmlns="http://www.w3.org/2000/svg" font-family="ui-sans-serif,system-ui,sans-serif">
  <style>
    :root { --fg:#18181b; --muted:#71717a; --line:#d4d4d8; --accent:#0ea5e9; }
    @media (prefers-color-scheme: dark) {
      :root { --fg:#e4e4e7; --muted:#a1a1aa; --line:#3f3f46; --accent:#38bdf8; }
    }
    .box     { fill: none; stroke: var(--fg);    stroke-width: 1.5; rx: 8; }
    .box-mut { fill: none; stroke: var(--muted); stroke-width: 1.5; rx: 8; }
    .box-acc { fill: none; stroke: var(--accent);stroke-width: 1.5; rx: 8; }
    .pill    { fill: none; stroke: var(--muted); stroke-width: 1.5; }
    .lbl     { fill: var(--fg);    font-size: 14px; text-anchor: middle; dominant-baseline: middle; }
    .lbl-sm  { fill: var(--muted); font-size: 12px; text-anchor: middle; dominant-baseline: middle; }
    .tier    { fill: var(--muted); font-size: 11px; text-anchor: end; dominant-baseline: middle; letter-spacing: 0.08em; font-weight: 600; }
    .ver     { fill: var(--accent); font-size: 12px; text-anchor: middle; font-family: ui-monospace,Menlo,monospace; font-weight: 600; }
  </style>

  <!-- tier labels -->
  <text class="tier" x="132" y="59">YOUR CODE</text>
  <text class="tier" x="132" y="145">SDKs</text>
  <text class="tier" x="132" y="235">SPEC</text>

  <!-- top layer: clients & servers -->
  <rect class="box-mut" x="152" y="20" width="380" height="78" rx="8"/>
  <text class="lbl" x="342" y="40">Clients</text>
  <rect class="box" x="172" y="56" width="102" height="30" rx="6"/>
  <text class="lbl-sm" x="223" y="71">IDE agent</text>
  <rect class="box" x="291" y="56" width="102" height="30" rx="6"/>
  <text class="lbl-sm" x="342" y="71">Chat app</text>
  <rect class="box" x="410" y="56" width="102" height="30" rx="6"/>
  <text class="lbl-sm" x="461" y="71">CLI tool</text>

  <rect class="box-mut" x="548" y="20" width="380" height="78" rx="8"/>
  <text class="lbl" x="738" y="40">Servers</text>
  <rect class="box" x="568" y="56" width="102" height="30" rx="6"/>
  <text class="lbl-sm" x="619" y="71">Filesystem</text>
  <rect class="box" x="687" y="56" width="102" height="30" rx="6"/>
  <text class="lbl-sm" x="738" y="71">Database</text>
  <rect class="box" x="806" y="56" width="102" height="30" rx="6"/>
  <text class="lbl-sm" x="857" y="71">SaaS API</text>

  <!-- middle layer: SDKs -->
  <rect class="box-acc" x="152" y="118" width="160" height="54" rx="8"/>
  <text class="lbl" x="232" y="145">Python</text>

  <rect class="box-acc" x="324" y="118" width="160" height="54" rx="8"/>
  <text class="lbl" x="404" y="145">TypeScript</text>

  <rect class="box-acc" x="496" y="118" width="160" height="54" rx="8"/>
  <text class="lbl" x="576" y="145">Go</text>

  <rect class="box-acc" x="668" y="118" width="160" height="54" rx="8"/>
  <text class="lbl" x="748" y="145">C#</text>

  <rect class="pill" x="842" y="132" width="86" height="26" rx="13"/>
  <text class="lbl-sm" x="885" y="145">+ more</text>

  <!-- bottom layer: spec -->
  <rect class="box" x="152" y="192" width="776" height="66" rx="8"/>
  <text class="lbl" x="540" y="216">MCP Specification</text>
  <text class="ver" x="540" y="236">2026-07-28</text>
</svg>
